<!DOCTYPE svg PUBLIC "-//W3C//DTD SVG 1.1//EN" "http://www.w3.org/Graphics/SVG/1.1/DTD/svg11.dtd">
<!-- Uploaded to: SVG Repo, www.svgrepo.com, Transformed by: SVG Repo Mixer Tools -->
<svg width="800px" height="800px" viewBox="0 0 24 24" xmlns="http://www.w3.org/2000/svg" fill="#81559B">
<g id="SVGRepo_bgCarrier" stroke-width="0"/>
<g id="SVGRepo_tracerCarrier" stroke-linecap="round" stroke-linejoin="round"/>
<g id="SVGRepo_iconCarrier"> <g> <path fill="none" d="M0 0h24v24H0z"/> <path d="M13 21v2h-2v-2H3a1 1 0 0 1-1-1V6h20v14a1 1 0 0 1-1 1h-8zm-9-2h16V8H4v11zm9-9h5v2h-5v-2zm0 4h5v2h-5v-2zm-4-4v3h3a3 3 0 1 1-3-3zM2 3h20v2H2V3z"/> </g> </g>
</svg>